<svg width="50" height="50" viewBox="0 0 50 50" fill="none" xmlns="http://www.w3.org/2000/svg">
<rect width="50" height="50" rx="10" fill="#433ECC"/>
<path d="M32.9316 25.9764C32.6845 27.9013 31.7444 29.67 30.2872 30.9517C28.83 32.2333 26.9557 32.94 25.015 32.9393C23.0744 32.9386 21.2006 32.2308 19.7442 30.9481C18.2879 29.6655 17.349 27.8961 17.1031 25.9711C16.8573 24.0461 17.3215 22.0975 18.4088 20.4901C19.4961 18.8827 21.1319 17.7266 23.0101 17.2383C24.8883 16.75 26.88 16.963 28.6125 17.8373C30.345 18.7116 31.6995 20.1874 32.4224 21.9883M32.9078 17.0003L32.921 21.987L27.9343 22.0003" stroke="white" stroke-width="2" stroke-linecap="round" stroke-linejoin="round"/>
</svg>
