<svg width="55" height="60" viewBox="0 0 55 60" fill="none" xmlns="http://www.w3.org/2000/svg">
<path d="M46.4583 0C48.6132 0 50.6798 0.948212 52.2035 2.63604C53.7273 4.32387 54.5833 6.61305 54.5833 9V51C54.5833 53.387 53.7273 55.6761 52.2035 57.364C50.6798 59.0518 48.6132 60 46.4583 60H8.54163C6.38674 60 4.32012 59.0518 2.79638 57.364C1.27265 55.6761 0.416626 53.387 0.416626 51V9C0.416626 6.61305 1.27265 4.32387 2.79638 2.63604C4.32012 0.948212 6.38674 0 8.54163 0H46.4583ZM26.4518 18.63C25.9307 18.1822 25.2801 17.9605 24.6219 18.0063C23.9637 18.0522 23.3432 18.3625 22.8768 18.879L22.652 19.161C22.2478 19.7382 22.0476 20.459 22.089 21.188C22.1304 21.9171 22.4105 22.6044 22.8768 23.121L29.0843 30L22.8768 36.879L22.652 37.161C22.2311 37.764 22.0332 38.5218 22.0985 39.2806C22.1637 40.0393 22.4873 40.7422 23.0034 41.2463C23.5195 41.7504 24.1895 42.018 24.8773 41.9947C25.565 41.9714 26.219 41.659 26.7064 41.121L34.8314 32.121L35.0562 31.839C35.4604 31.2618 35.6606 30.541 35.6192 29.812C35.5779 29.0829 35.2977 28.3956 34.8314 27.879L26.7064 18.879L26.4518 18.63Z" fill="#433ECC"/>
</svg>
