<svg width="59" height="59" viewBox="0 0 59 59" fill="none" xmlns="http://www.w3.org/2000/svg">
<path d="M50.15 0C52.4972 0 54.7482 0.932408 56.4079 2.59211C58.0676 4.2518 59 6.50283 59 8.85V50.15C59 52.4972 58.0676 54.7482 56.4079 56.4079C54.7482 58.0676 52.4972 59 50.15 59H8.85C6.50283 59 4.2518 58.0676 2.59211 56.4079C0.932408 54.7482 0 52.4972 0 50.15V8.85C0 6.50283 0.932408 4.2518 2.59211 2.59211C4.2518 0.932408 6.50283 0 8.85 0H50.15ZM31.5856 15.6144C31.0324 15.0613 30.2822 14.7506 29.5 14.7506C28.7178 14.7506 27.9676 15.0613 27.4144 15.6144L15.6144 27.4144L15.3695 27.6917L15.1807 27.9631L15.0273 28.2521L14.8975 28.5767L14.809 28.907L14.7588 29.2788L14.75 29.5L14.7618 29.7655L14.7825 29.9366L14.8562 30.2847L14.9595 30.5945L15.1188 30.9278L15.3282 31.2553C15.4147 31.3733 15.5101 31.4834 15.6144 31.5856L27.4144 43.3857L27.6917 43.6305C28.2592 44.0708 28.968 44.2889 29.6849 44.2438C30.4018 44.1987 31.0777 43.8936 31.5856 43.3857L31.8305 43.1084C32.2708 42.5408 32.4889 41.832 32.4438 41.1151C32.3987 40.3982 32.0936 39.7223 31.5856 39.2144L24.8243 32.45H41.3L41.6452 32.4294C42.3918 32.3405 43.0763 31.97 43.5589 31.3934C44.0415 30.8168 44.2857 30.0777 44.2417 29.3271C44.1976 28.5765 43.8686 27.8711 43.3218 27.3549C42.7751 26.8387 42.0519 26.5508 41.3 26.55H24.8243L31.5856 19.7857L31.8305 19.5084C32.2708 18.9408 32.4889 18.232 32.4438 17.5151C32.3987 16.7982 32.0936 16.1223 31.5856 15.6144Z" fill="#433ECC"/>
</svg>
