<svg width="32" height="32" viewBox="0 0 32 32" fill="none" xmlns="http://www.w3.org/2000/svg">
<path d="M16 2.6665C17.3186 2.6665 18.6075 3.0575 19.7038 3.79004C20.8001 4.52258 21.6546 5.56377 22.1592 6.78195C22.6638 8.00012 22.7958 9.34057 22.5386 10.6338C22.2814 11.927 21.6464 13.1149 20.7141 14.0472C19.7817 14.9796 18.5938 15.6145 17.3006 15.8717C16.0074 16.129 14.667 15.997 13.4488 15.4924C12.2306 14.9878 11.1894 14.1333 10.4569 13.037C9.72435 11.9406 9.33335 10.6517 9.33335 9.33317L9.34002 9.04384C9.41458 7.32751 10.1488 5.70621 11.3897 4.51805C12.6305 3.32989 14.2821 2.6666 16 2.6665ZM18.6667 18.6665C20.4348 18.6665 22.1305 19.3689 23.3807 20.6191C24.631 21.8694 25.3334 23.5651 25.3334 25.3332V26.6665C25.3334 27.3737 25.0524 28.052 24.5523 28.5521C24.0522 29.0522 23.3739 29.3332 22.6667 29.3332H9.33335C8.62611 29.3332 7.94783 29.0522 7.44774 28.5521C6.94764 28.052 6.66669 27.3737 6.66669 26.6665V25.3332C6.66669 23.5651 7.36907 21.8694 8.61931 20.6191C9.86955 19.3689 11.5652 18.6665 13.3334 18.6665H18.6667Z" fill="#433ECC"/>
</svg>
