<svg width="33" height="33" viewBox="0 0 33 33" fill="none" xmlns="http://www.w3.org/2000/svg">
<path d="M16.2479 0C17.5118 7.68247e-05 18.7324 0.460478 19.6815 1.29513L19.9318 1.53075L21.066 2.665C21.3773 2.97426 21.7838 3.16949 22.2198 3.21913L22.4391 3.23213H24.0641C25.3921 3.23205 26.6698 3.74005 27.6352 4.65195C28.6006 5.56385 29.1805 6.81055 29.256 8.13638L29.2641 8.43213V10.0571C29.2641 10.4959 29.4136 10.9233 29.6834 11.2645L29.8296 11.427L30.9623 12.5613C31.901 13.4947 32.4484 14.7511 32.4928 16.0743C32.5372 17.3974 32.0752 18.6877 31.2011 19.682L30.9655 19.9323L29.8313 21.0665C29.522 21.3778 29.3268 21.7843 29.2771 22.2203L29.2641 22.4396V24.0646C29.2642 25.3926 28.7562 26.6703 27.8443 27.6357C26.9324 28.6011 25.6857 29.181 24.3599 29.2565L24.0641 29.2646H22.4391C22.001 29.2648 21.5757 29.4125 21.2318 29.6839L21.0693 29.8301L19.935 30.9628C19.0015 31.9015 17.7451 32.4489 16.422 32.4933C15.0988 32.5377 13.8085 32.0758 12.8143 31.2016L12.564 30.966L11.4298 29.8318C11.1185 29.5225 10.712 29.3273 10.276 29.2776L10.0566 29.2646H8.43163C7.10365 29.2647 5.82596 28.7567 4.86058 27.8448C3.8952 26.9329 3.31528 25.6862 3.23975 24.3604L3.23163 24.0646V22.4396C3.23148 22.0015 3.0838 21.5762 2.81238 21.2323L2.66613 21.0698L1.5335 19.9355C0.594709 19.002 0.0473132 17.7456 0.00292622 16.4225C-0.0414608 15.0993 0.420504 13.809 1.29463 12.8148L1.53025 12.5645L2.6645 11.4303C2.97376 11.119 3.16899 10.7125 3.21863 10.2765L3.23163 10.0571V8.43213L3.23975 8.13638C3.31231 6.86147 3.85144 5.65784 4.75439 4.75489C5.65734 3.85194 6.86097 3.31281 8.13588 3.24025L8.43163 3.23213H10.0566C10.4948 3.23198 10.9201 3.08429 11.264 2.81288L11.4265 2.66663L12.5608 1.534C13.0439 1.04794 13.6184 0.662196 14.2512 0.398937C14.884 0.135677 15.5625 9.92486e-05 16.2479 0ZM22.2555 11.8333C21.9508 11.5286 21.5375 11.3575 21.1066 11.3575C20.6757 11.3575 20.2625 11.5286 19.9578 11.8333L14.6066 17.1828L12.5055 15.0833L12.3528 14.9484C12.0261 14.6958 11.6156 14.5771 11.2046 14.6162C10.7936 14.6554 10.413 14.8495 10.1399 15.1592C9.86685 15.4688 9.7219 15.8708 9.7345 16.2835C9.74711 16.6962 9.91631 17.0886 10.2078 17.381L13.4578 20.631L13.6105 20.7659C13.9232 21.0084 14.3136 21.1285 14.7085 21.1037C15.1034 21.0789 15.4757 20.9108 15.7555 20.631L22.2555 14.131L22.3904 13.9783C22.6329 13.6656 22.753 13.2752 22.7282 12.8803C22.7034 12.4854 22.5353 12.1131 22.2555 11.8333Z" fill="black"/>
</svg>
