<svg width="27" height="28" viewBox="0 0 27 28" fill="none" xmlns="http://www.w3.org/2000/svg">
<path d="M1 2.625C1 2.19402 1.18814 1.7807 1.52302 1.47595C1.85791 1.17121 2.31211 1 2.78571 1H24.2143C24.6879 1 25.1421 1.17121 25.477 1.47595C25.8119 1.7807 26 2.19402 26 2.625V25.375C26 25.806 25.8119 26.2193 25.477 26.524C25.1421 26.8288 24.6879 27 24.2143 27H2.78571C2.31211 27 1.85791 26.8288 1.52302 26.524C1.18814 26.2193 1 25.806 1 25.375V2.625Z" stroke="white" stroke-width="2" stroke-linecap="round" stroke-linejoin="round"/>
<path d="M9.92847 10.75L13.4999 7.5L17.0713 10.75M9.92847 17.25L13.4999 20.5L17.0713 17.25" stroke="white" stroke-width="2" stroke-linecap="round" stroke-linejoin="round"/>
</svg>
