<svg width="41" height="38" viewBox="0 0 41 38" fill="none" xmlns="http://www.w3.org/2000/svg">
<path d="M39.9116 36.25L27.1797 24.75M1.71594 15.1667C1.71594 16.9286 2.10015 18.6732 2.84663 20.301C3.5931 21.9288 4.68723 23.4078 6.06654 24.6537C7.44585 25.8995 9.08333 26.8878 10.8855 27.5621C12.6876 28.2363 14.6192 28.5833 16.5698 28.5833C18.5205 28.5833 20.452 28.2363 22.2542 27.5621C24.0563 26.8878 25.6938 25.8995 27.0731 24.6537C28.4524 23.4078 29.5465 21.9288 30.293 20.301C31.0395 18.6732 31.4237 16.9286 31.4237 15.1667C31.4237 13.4048 31.0395 11.6601 30.293 10.0323C29.5465 8.40455 28.4524 6.9255 27.0731 5.67965C25.6938 4.4338 24.0563 3.44553 22.2542 2.77128C20.452 2.09703 18.5205 1.75 16.5698 1.75C14.6192 1.75 12.6876 2.09703 10.8855 2.77128C9.08333 3.44553 7.44585 4.4338 6.06654 5.67965C4.68723 6.9255 3.5931 8.40455 2.84663 10.0323C2.10015 11.6601 1.71594 13.4048 1.71594 15.1667Z" stroke="#433ECC" stroke-width="2" stroke-linecap="round" stroke-linejoin="round"/>
</svg>
