<svg width="50" height="50" viewBox="0 0 50 50" fill="none" xmlns="http://www.w3.org/2000/svg">
<circle cx="25" cy="25" r="25" fill="#433ECC"/>
<path d="M27.2776 16.6488L33.351 22.7222M12.8531 37.1467H18.9266L34.8694 21.2039C35.2682 20.8051 35.5845 20.3316 35.8003 19.8106C36.0162 19.2896 36.1272 18.7311 36.1272 18.1671C36.1272 17.6032 36.0162 17.0447 35.8003 16.5237C35.5845 16.0026 35.2682 15.5292 34.8694 15.1304C34.4706 14.7316 33.9972 14.4153 33.4761 14.1995C32.9551 13.9836 32.3966 13.8726 31.8327 13.8726C31.2687 13.8726 30.7102 13.9836 30.1892 14.1995C29.6682 14.4153 29.1947 14.7316 28.7959 15.1304L12.8531 31.0732V37.1467Z" stroke="white" stroke-width="2" stroke-linecap="round" stroke-linejoin="round"/>
</svg>
