<svg width="50" height="50" viewBox="0 0 50 50" fill="none" xmlns="http://www.w3.org/2000/svg">
<circle cx="25" cy="25" r="25" fill="#FF6884"/>
<path d="M26.875 17.7087L31.875 23.0118M15 35.6064H20L33.125 21.686C33.4533 21.3378 33.7137 20.9244 33.8914 20.4695C34.0691 20.0145 34.1605 19.5269 34.1605 19.0345C34.1605 18.542 34.0691 18.0544 33.8914 17.5995C33.7137 17.1445 33.4533 16.7312 33.125 16.383C32.7967 16.0348 32.4069 15.7586 31.978 15.5701C31.549 15.3817 31.0893 15.2847 30.625 15.2847C30.1607 15.2847 29.701 15.3817 29.272 15.5701C28.8431 15.7586 28.4533 16.0348 28.125 16.383L15 30.3034V35.6064Z" stroke="white" stroke-width="2" stroke-linecap="round" stroke-linejoin="round"/>
</svg>
