<svg width="36" height="33" viewBox="0 0 36 33" fill="none" xmlns="http://www.w3.org/2000/svg">
<path d="M24 4.125V9.625M12 4.125V9.625M6 15.125H30M16.5 20.625H18V24.75M6 9.625C6 8.89565 6.31607 8.19618 6.87868 7.68046C7.44129 7.16473 8.20435 6.875 9 6.875H27C27.7956 6.875 28.5587 7.16473 29.1213 7.68046C29.6839 8.19618 30 8.89565 30 9.625V26.125C30 26.8543 29.6839 27.5538 29.1213 28.0695C28.5587 28.5853 27.7956 28.875 27 28.875H9C8.20435 28.875 7.44129 28.5853 6.87868 28.0695C6.31607 27.5538 6 26.8543 6 26.125V9.625Z" stroke="white" stroke-width="2" stroke-linecap="round" stroke-linejoin="round"/>
</svg>
