<svg width="31" height="31" viewBox="0 0 31 31" fill="none" xmlns="http://www.w3.org/2000/svg">
<path d="M11.6249 6.45825H9.04159C8.35644 6.45825 7.69936 6.73042 7.21489 7.21489C6.73042 7.69936 6.45825 8.35644 6.45825 9.04159V24.5416C6.45825 25.2267 6.73042 25.8838 7.21489 26.3683C7.69936 26.8527 8.35644 27.1249 9.04159 27.1249H21.9583C22.6434 27.1249 23.3005 26.8527 23.7849 26.3683C24.2694 25.8838 24.5416 25.2267 24.5416 24.5416V9.04159C24.5416 8.35644 24.2694 7.69936 23.7849 7.21489C23.3005 6.73042 22.6434 6.45825 21.9583 6.45825H19.3749" stroke="white" stroke-width="2" stroke-linecap="round" stroke-linejoin="round"/>
<path d="M11.625 15.5H19.375M11.625 20.6667H19.375M11.625 6.45833C11.625 5.77319 11.8972 5.11611 12.3816 4.63164C12.8661 4.14717 13.5232 3.875 14.2083 3.875H16.7917C17.4768 3.875 18.1339 4.14717 18.6184 4.63164C19.1028 5.11611 19.375 5.77319 19.375 6.45833C19.375 7.14348 19.1028 7.80056 18.6184 8.28503C18.1339 8.76949 17.4768 9.04167 16.7917 9.04167H14.2083C13.5232 9.04167 12.8661 8.76949 12.3816 8.28503C11.8972 7.80056 11.625 7.14348 11.625 6.45833Z" stroke="white" stroke-width="2" stroke-linecap="round" stroke-linejoin="round"/>
</svg>
