<svg width="39" height="39" viewBox="0 0 39 39" fill="none" xmlns="http://www.w3.org/2000/svg">
<path d="M32.5 9.75C32.9142 9.75046 33.3126 9.90905 33.6138 10.1934C33.9149 10.4777 34.0962 10.8663 34.1204 11.2798C34.1447 11.6932 34.0102 12.1004 33.7444 12.418C33.4785 12.7356 33.1014 12.9397 32.6902 12.9886L32.5 13H32.3684L30.875 30.875C30.8751 32.1185 30.4 33.315 29.5469 34.2197C28.6939 35.1244 27.5274 35.6689 26.286 35.7419L26 35.75H13C10.4033 35.75 8.28103 33.7204 8.13803 31.2812L8.12991 31.0099L6.63003 13H6.50003C6.08585 12.9995 5.68748 12.8409 5.38631 12.5566C5.08514 12.2723 4.9039 11.8837 4.87963 11.4702C4.85535 11.0568 4.98988 10.6496 5.25571 10.332C5.52155 10.0144 5.89863 9.81029 6.30991 9.76137L6.50003 9.75H32.5ZM22.75 3.25C23.612 3.25 24.4386 3.59241 25.0481 4.2019C25.6576 4.8114 26 5.63805 26 6.5C25.9996 6.91418 25.841 7.31255 25.5567 7.61372C25.2723 7.9149 24.8837 8.09613 24.4703 8.1204C24.0568 8.14468 23.6497 8.01015 23.3321 7.74432C23.0144 7.47849 22.8103 7.10141 22.7614 6.69013L22.75 6.5H16.25L16.2387 6.69013C16.1897 7.10141 15.9856 7.47849 15.668 7.74432C15.3504 8.01015 14.9433 8.14468 14.5298 8.1204C14.1163 8.09613 13.7277 7.9149 13.4434 7.61372C13.1591 7.31255 13.0005 6.91418 13 6.5C12.9998 5.68006 13.3094 4.89033 13.867 4.28911C14.4245 3.68789 15.1887 3.31962 16.0063 3.25813L16.25 3.25H22.75Z" fill="black"/>
</svg>
