<svg width="37" height="34" viewBox="0 0 37 34" fill="none" xmlns="http://www.w3.org/2000/svg">
<path d="M32.3137 31.6665L22.5637 21.9165M3.06366 13.7915C3.06366 15.2853 3.35788 16.7644 3.92953 18.1445C4.50118 19.5246 5.33905 20.7786 6.39532 21.8348C7.45159 22.8911 8.70556 23.729 10.0856 24.3006C11.4657 24.8723 12.9449 25.1665 14.4387 25.1665C15.9324 25.1665 17.4116 24.8723 18.7917 24.3006C20.1718 23.729 21.4257 22.8911 22.482 21.8348C23.5383 20.7786 24.3761 19.5246 24.9478 18.1445C25.5194 16.7644 25.8137 15.2853 25.8137 13.7915C25.8137 12.2977 25.5194 10.8186 24.9478 9.43848C24.3761 8.0584 23.5383 6.80443 22.482 5.74816C21.4257 4.6919 20.1718 3.85402 18.7917 3.28237C17.4116 2.71073 15.9324 2.4165 14.4387 2.4165C12.9449 2.4165 11.4657 2.71073 10.0856 3.28237C8.70556 3.85402 7.45159 4.6919 6.39532 5.74816C5.33905 6.80443 4.50118 8.0584 3.92953 9.43848C3.35788 10.8186 3.06366 12.2977 3.06366 13.7915Z" stroke="#999999" stroke-width="2" stroke-linecap="round" stroke-linejoin="round"/>
</svg>
