<svg width="50" height="50" viewBox="0 0 50 50" fill="none" xmlns="http://www.w3.org/2000/svg">
<rect width="50" height="50" rx="10" fill="#433ECC"/>
<path d="M20.7143 14H17.8571C17.0994 14 16.3727 14.2634 15.8368 14.7322C15.301 15.2011 15 15.837 15 16.5V31.5C15 32.163 15.301 32.7989 15.8368 33.2678C16.3727 33.7366 17.0994 34 17.8571 34H20.7143C21.472 34 22.1988 33.7366 22.7346 33.2678C23.2704 32.7989 23.5714 32.163 23.5714 31.5V16.5C23.5714 15.837 23.2704 15.2011 22.7346 14.7322C22.1988 14.2634 21.472 14 20.7143 14ZM32.1429 14H29.2857C28.528 14 27.8012 14.2634 27.2654 14.7322C26.7296 15.2011 26.4286 15.837 26.4286 16.5V31.5C26.4286 32.163 26.7296 32.7989 27.2654 33.2678C27.8012 33.7366 28.528 34 29.2857 34H32.1429C32.9006 34 33.6273 33.7366 34.1632 33.2678C34.699 32.7989 35 32.163 35 31.5V16.5C35 15.837 34.699 15.2011 34.1632 14.7322C33.6273 14.2634 32.9006 14 32.1429 14Z" fill="white"/>
</svg>
