<svg width="50" height="50" viewBox="0 0 50 50" fill="none" xmlns="http://www.w3.org/2000/svg">
<rect width="50" height="50" rx="10" fill="#433ECC"/>
<path d="M13 14.3337V35.6663C12.9999 35.9036 13.0758 36.1365 13.2198 36.3412C13.3638 36.5458 13.5707 36.7147 13.8192 36.8305C14.0677 36.9462 14.3487 37.0047 14.6334 36.9997C14.918 36.9948 15.1959 36.9266 15.4383 36.8023L36.2377 26.136C36.4706 26.0167 36.663 25.8496 36.7965 25.6508C36.9299 25.4519 37 25.2278 37 25C37 24.7722 36.9299 24.5481 36.7965 24.3492C36.663 24.1504 36.4706 23.9833 36.2377 23.864L15.4383 13.1977C15.1959 13.0734 14.918 13.0052 14.6334 13.0003C14.3487 12.9953 14.0677 13.0538 13.8192 13.1695C13.5707 13.2853 13.3638 13.4542 13.2198 13.6588C13.0758 13.8635 12.9999 14.0964 13 14.3337Z" fill="white"/>
</svg>
