<svg width="229" height="50" viewBox="0 0 229 50" fill="none" xmlns="http://www.w3.org/2000/svg">
<path d="M0 2.27907C0 1.02037 1.1547 0 2.5791 0H4.83582C6.26022 0 7.41493 1.02037 7.41493 2.27907V35.8953C7.41493 37.154 6.26022 38.1744 4.83582 38.1744H2.5791C1.1547 38.1744 0 37.154 0 35.8953V2.27907Z" fill="#433ECC"/>
<path d="M4.19104 6.55233V0H32.2388V6.55233H4.19104Z" fill="#433ECC"/>
<path d="M37.0805 17.6757C37.0773 18.9344 35.9199 19.9524 34.4955 19.9495L32.2388 19.945C30.8144 19.9421 29.6623 18.9194 29.6656 17.6607L29.7055 2.27907C29.7088 1.02038 30.8661 0.00234445 32.2905 0.00522956L34.5472 0.00980053C35.9716 0.0126856 37.1237 1.0354 37.1204 2.29409L37.0805 17.6757Z" fill="#433ECC"/>
<path d="M14.8299 22.2209C13.4055 22.2209 12.2507 21.2006 12.2507 19.9419V17.9477C12.2507 16.689 13.4055 15.6686 14.8299 15.6686H34.4955C35.9199 15.6686 37.0746 16.689 37.0746 17.9477V19.9419C37.0746 21.2006 35.9199 22.2209 34.4955 22.2209H14.8299Z" fill="#433ECC"/>
<path d="M14.8299 37.8895C13.4055 37.8895 12.2507 36.8692 12.2507 35.6105V33.6163C12.2507 32.3576 13.4055 31.3372 14.8299 31.3372H27.0806C28.505 31.3372 29.6597 32.3576 29.6597 33.6163V35.6105C29.6597 36.8692 28.505 37.8895 27.0806 37.8895H14.8299Z" fill="#433ECC"/>
<path d="M3.96099 48.0377C3.83993 48.2442 3.50507 48.2424 3.38677 48.0347L0.279088 42.5785C0.170803 42.3884 0.328101 42.1643 0.568957 42.1655L6.85682 42.1982C7.09768 42.1995 7.25198 42.4252 7.14116 42.6142L3.96099 48.0377Z" fill="#433ECC"/>
<path d="M41.9104 1.85174C41.9104 0.986391 42.7043 0.284884 43.6836 0.284884H213.904C214.884 0.284884 215.678 0.986391 215.678 1.85174C215.678 2.7171 214.884 3.4186 213.904 3.4186H43.6836C42.7043 3.4186 41.9104 2.7171 41.9104 1.85174Z" fill="#433ECC"/>
<path d="M214.227 9.97093C213.248 9.97093 212.454 9.26942 212.454 8.40407V1.85174C212.454 0.986391 213.248 0.284884 214.227 0.284884C215.206 0.284884 216 0.986391 216 1.85174V8.40407C216 9.26942 215.206 9.97093 214.227 9.97093Z" fill="#433ECC"/>
<path d="M41.9104 20.5116C41.9104 19.2529 43.0652 18.2326 44.4896 18.2326H45.7791C47.2035 18.2326 48.3582 19.2529 48.3582 20.5116V44.4419C48.3582 45.7006 47.2035 46.7209 45.7791 46.7209H44.4896C43.0652 46.7209 41.9104 45.7006 41.9104 44.4419V20.5116Z" fill="#433ECC"/>
<path d="M41.9104 45.0116C41.9104 43.7529 43.0652 42.7326 44.4896 42.7326H56.7403C58.1647 42.7326 59.3194 43.7529 59.3194 45.0116V46.1512C59.3194 47.4099 58.1647 48.4302 56.7403 48.4302H44.4896C43.0652 48.4302 41.9104 47.4099 41.9104 46.1512V45.0116Z" fill="#433ECC"/>
<path d="M67.9029 48.2604C66.5453 47.8795 65.7942 46.5981 66.2253 45.3985L75.1034 20.6896C75.5345 19.49 76.9845 18.8262 78.3421 19.2071L79.5712 19.552C80.9288 19.9329 81.6799 21.2142 81.2488 22.4139L72.3707 47.1227C71.9396 48.3224 70.4896 48.9861 69.132 48.6052L67.9029 48.2604Z" fill="#433ECC"/>
<path d="M93.4415 48.4219C92.0968 48.8371 90.6259 48.2103 90.1561 47.022L80.4804 22.5481C80.0107 21.3599 80.7199 20.06 82.0646 19.6449L83.282 19.2691C84.6267 18.854 86.0977 19.4807 86.5674 20.669L96.2431 45.1429C96.7129 46.3312 96.0036 47.631 94.6589 48.0461L93.4415 48.4219Z" fill="#433ECC"/>
<path d="M74.794 33.3314H86.7224V38.4593H74.794V33.3314Z" fill="#433ECC"/>
<path d="M78.6627 19.3721C78.6627 18.7427 79.24 18.2326 79.9522 18.2326H82.5313C83.2435 18.2326 83.8209 18.7427 83.8209 19.3721C83.8209 20.0014 83.2435 20.5116 82.5313 20.5116H79.9522C79.24 20.5116 78.6627 20.0014 78.6627 19.3721Z" fill="#433ECC"/>
<path d="M105.743 49C104.319 49 103.164 47.9796 103.164 46.7209V20.7965C103.164 19.5378 104.319 18.5174 105.743 18.5174H107.033C108.457 18.5174 109.612 19.5378 109.612 20.7965V46.7209C109.612 47.9796 108.457 49 107.033 49H105.743Z" fill="#433ECC"/>
<path d="M136.693 48.7151C135.268 48.7151 134.113 47.6947 134.113 46.436V20.5116C134.113 19.2529 135.268 18.2326 136.693 18.2326H137.982C139.406 18.2326 140.561 19.2529 140.561 20.5116V46.436C140.561 47.6947 139.406 48.7151 137.982 48.7151H136.693Z" fill="#433ECC"/>
<path d="M168.287 48.4302C166.862 48.4302 165.707 47.4099 165.707 46.1512V20.2267C165.707 18.968 166.862 17.9477 168.287 17.9477H169.576C171.001 17.9477 172.155 18.968 172.155 20.2267V46.1512C172.155 47.4099 171.001 48.4302 169.576 48.4302H168.287Z" fill="#433ECC"/>
<path d="M123.797 49C122.373 49 121.218 47.9796 121.218 46.7209V19.9419C121.218 18.6832 122.373 17.6628 123.797 17.6628H125.087C126.511 17.6628 127.666 18.6832 127.666 19.9419V46.7209C127.666 47.9796 126.511 49 125.087 49H123.797Z" fill="#433ECC"/>
<path d="M155.391 49C153.967 49 152.812 47.9796 152.812 46.7209V19.9419C152.812 18.6832 153.967 17.6628 155.391 17.6628H156.681C158.105 17.6628 159.26 18.6832 159.26 19.9419V46.7209C159.26 47.9796 158.105 49 156.681 49H155.391Z" fill="#433ECC"/>
<path d="M124.615 48.4511C123.379 49.0765 121.803 48.6979 121.096 47.6056L105.735 23.8959C105.027 22.8035 105.456 21.4111 106.692 20.7857L107.811 20.2195C109.047 19.5942 110.623 19.9727 111.331 21.0651L126.691 44.7748C127.399 45.8671 126.971 47.2596 125.735 47.885L124.615 48.4511Z" fill="#433ECC"/>
<path d="M156.378 48.3655C155.131 48.9736 153.562 48.5731 152.874 47.471L137.938 23.5503C137.25 22.4482 137.704 21.0619 138.951 20.4538L140.08 19.9033C141.327 19.2952 142.896 19.6957 143.584 20.7978L158.52 44.7185C159.208 45.8206 158.755 47.2069 157.507 47.815L156.378 48.3655Z" fill="#433ECC"/>
<path d="M104.893 19.5087C105.608 18.9436 106.56 18.6644 107.539 18.7327C108.518 18.8009 109.444 19.2109 110.114 19.8726C110.784 20.5342 111.142 21.3932 111.11 22.2607C111.078 23.1281 110.658 23.9329 109.943 24.498L104.893 19.5087Z" fill="#433ECC"/>
<path d="M136.36 20.5584C136.7 19.7905 137.397 19.1822 138.298 18.8675C139.2 18.5528 140.232 18.5574 141.168 18.8803C142.104 19.2032 142.866 19.8179 143.288 20.5893C143.71 21.3606 143.756 22.2254 143.416 22.9934L136.36 20.5584Z" fill="#433ECC"/>
<path d="M135.003 21.5247C134.852 20.711 135.102 19.8739 135.697 19.1973C136.291 18.5208 137.182 18.0604 138.174 17.9173C139.165 17.7743 140.176 17.9603 140.983 18.4345C141.79 18.9087 142.328 19.6322 142.479 20.4458L135.003 21.5247Z" fill="#433ECC"/>
<path d="M139.007 18.4736C138.937 18.2353 138.677 18.0511 138.284 17.9614C137.891 17.8718 137.398 17.8841 136.912 17.9957C136.426 18.1072 135.988 18.3089 135.694 18.5563C135.401 18.8036 135.275 19.0765 135.345 19.3148L139.007 18.4736Z" fill="#433ECC"/>
<path d="M195.367 48.4302C193.943 48.4302 192.788 47.4099 192.788 46.1512V20.2267C192.788 18.968 193.943 17.9477 195.367 17.9477H196.979C198.404 17.9477 199.558 18.968 199.558 20.2267V46.1512C199.558 47.4099 198.404 48.4302 196.979 48.4302H195.367Z" fill="#433ECC"/>
<path d="M167.319 45.5814C167.319 44.3227 168.474 43.3023 169.898 43.3023H182.794C184.218 43.3023 185.373 44.3227 185.373 45.5814V46.1512C185.373 47.4099 184.218 48.4302 182.794 48.4302H169.898C168.474 48.4302 167.319 47.4099 167.319 46.1512V45.5814Z" fill="#433ECC"/>
<path d="M199.188 35.2762C200.164 34.3594 201.796 34.3155 202.834 35.178L213.206 43.801C214.243 44.6635 214.293 46.1059 213.317 47.0226L212.875 47.4376C211.899 48.3544 210.267 48.3983 209.23 47.5359L198.858 38.9128C197.82 38.0503 197.77 36.6079 198.746 35.6912L199.188 35.2762Z" fill="#433ECC"/>
<path d="M167.964 20.2267C167.964 18.968 169.119 17.9477 170.543 17.9477H183.439C184.863 17.9477 186.018 18.968 186.018 20.2267V20.7965C186.018 22.0552 184.863 23.0756 183.439 23.0756H170.543C169.119 23.0756 167.964 22.0552 167.964 20.7965V20.2267Z" fill="#433ECC"/>
<path d="M168.609 33.0465C168.609 31.7878 169.764 30.7674 171.188 30.7674H184.084C185.508 30.7674 186.663 31.7878 186.663 33.0465V33.6163C186.663 34.875 185.508 35.8953 184.084 35.8953H171.188C169.764 35.8953 168.609 34.875 168.609 33.6163V33.0465Z" fill="#433ECC"/>
<path d="M195.116 19.9193C195.121 18.8649 196.094 18.006 197.283 18.0898C198.785 18.1957 200.256 18.406 201.659 18.7164C203.73 19.1746 205.61 19.8418 207.193 20.6801C208.775 21.5184 210.029 22.5113 210.882 23.6022C211.735 24.693 212.172 25.8604 212.166 27.0377C212.161 28.2151 211.714 29.3792 210.85 30.4638C209.986 31.5484 208.723 32.5321 207.133 33.3588C205.543 34.1855 203.657 34.839 201.582 35.282C200.176 35.5821 198.702 35.7816 197.2 35.8765C196.01 35.9517 195.045 35.0857 195.05 34.0313C195.055 32.9769 196.031 32.1398 197.214 32.0044C197.759 31.9419 198.295 31.855 198.814 31.7441C200.005 31.4898 201.088 31.1146 202.001 30.64C202.914 30.1654 203.639 29.6007 204.135 28.978C204.631 28.3554 204.887 27.687 204.891 27.0112C204.894 26.3353 204.643 25.665 204.153 25.0388C203.663 24.4125 202.944 23.8425 202.035 23.3613C201.127 22.88 200.047 22.4969 198.859 22.2339C198.34 22.1193 197.806 22.0284 197.261 21.962C196.079 21.8179 195.111 20.9737 195.116 19.9193Z" fill="#433ECC"/>
<path d="M74.8347 22.1975C74.8294 21.6865 74.9409 21.1796 75.163 20.7056C75.3851 20.2316 75.7134 19.8 76.1292 19.4352C76.5449 19.0704 77.0399 18.7798 77.586 18.5797C78.132 18.3797 78.7184 18.2743 79.3117 18.2694C79.905 18.2646 80.4935 18.3604 81.0436 18.5515C81.5938 18.7426 82.0948 19.0252 82.5181 19.3831C82.9414 19.741 83.2786 20.1672 83.5106 20.6375C83.7426 21.1078 83.8647 21.6128 83.87 22.1238L74.8347 22.1975Z" fill="#433ECC"/>
<path d="M78.0179 20.8567C78.2104 20.3515 78.5119 19.8843 78.905 19.4816C79.2982 19.079 79.7753 18.7488 80.3092 18.51C80.8432 18.2711 81.3041 18.2745 81.8976 18.2358C82.491 18.1972 83.1108 18.1817 83.6734 18.3491C84.236 18.5165 84.8496 18.7174 85.2957 19.0653C85.7418 19.4133 86.106 19.8372 86.3677 20.3128C86.6294 20.7884 86.7834 21.3064 86.8208 21.8371C86.8582 22.3679 86.7784 22.9011 86.5859 23.4063L78.0179 20.8567Z" fill="#433ECC"/>
<path d="M110.047 20.0437C110.109 19.9875 110.211 19.9865 110.275 20.0415L110.966 20.639C111.03 20.694 111.031 20.7842 110.969 20.8405C110.907 20.8967 110.805 20.8977 110.741 20.8427L110.05 20.2451C109.986 20.1901 109.985 20.0999 110.047 20.0437Z" fill="#433ECC"/>
</svg>
