<svg width="39" height="39" viewBox="0 0 39 39" fill="none" xmlns="http://www.w3.org/2000/svg">
<path d="M32.5 9.75C32.9142 9.75046 33.3126 9.90905 33.6137 10.1934C33.9149 10.4777 34.0961 10.8663 34.1204 11.2798C34.1447 11.6932 34.0102 12.1004 33.7443 12.418C33.4785 12.7356 33.1014 12.9397 32.6901 12.9886L32.5 13H32.3684L30.875 30.875C30.8751 32.1185 30.4 33.315 29.5469 34.2197C28.6939 35.1244 27.5273 35.6689 26.286 35.7419L26 35.75H13C10.4033 35.75 8.281 33.7204 8.138 31.2812L8.12987 31.0099L6.63 13H6.5C6.08582 12.9995 5.68745 12.8409 5.38628 12.5566C5.08511 12.2723 4.90387 11.8837 4.8796 11.4702C4.85532 11.0568 4.98985 10.6496 5.25568 10.332C5.52151 10.0144 5.89859 9.81029 6.30988 9.76137L6.5 9.75H32.5ZM22.75 3.25C23.612 3.25 24.4386 3.59241 25.0481 4.2019C25.6576 4.8114 26 5.63805 26 6.5C25.9995 6.91418 25.8409 7.31255 25.5566 7.61372C25.2723 7.9149 24.8837 8.09613 24.4702 8.1204C24.0568 8.14468 23.6496 8.01015 23.332 7.74432C23.0144 7.47849 22.8103 7.10141 22.7614 6.69013L22.75 6.5H16.25L16.2386 6.69013C16.1897 7.10141 15.9856 7.47849 15.668 7.74432C15.3504 8.01015 14.9432 8.14468 14.5298 8.1204C14.1163 8.09613 13.7277 7.9149 13.4434 7.61372C13.1591 7.31255 13.0005 6.91418 13 6.5C12.9997 5.68006 13.3094 4.89033 13.8669 4.28911C14.4245 3.68789 15.1886 3.31962 16.0063 3.25813L16.25 3.25H22.75Z" fill="#FF6884"/>
</svg>
